# xmcd
# 
# Track frame offsets:
#     150
#     29043
#     44225
#     57456
#     83079
#     94676
#     108003
#     133614
#     162338
# 
# Disc length: 2336
# 
# Revision: 0
# Processed by: cddbd v1.5.2PL0 Copyright (c) Steve Scherf et al.
# Submitted via: fre:ac v1.0.17
# 
DISCID=78091e09
DTITLE=Buddy Guy - A Man and The Blues
DYEAR=1968
DGENRE=Blues
TTITLE0=A Man And The Blues
TTITLE1=I Can't Quit the Blues
TTITLE2=Money
TTITLE3=One Room Country Shack
TTITLE4=mary Had a Little lamb
TTITLE5=Just Playing My Axe
TTITLE6=Sweet LIttle Angel
TTITLE7=Worry, Worry
TTITLE8=Jam On a Monday Morning
EXTD=
EXTT0=
EXTT1=
EXTT2=
EXTT3=
EXTT4=
EXTT5=
EXTT6=
EXTT7=
EXTT8=
PLAYORDER=
